<?xml version="1.0" encoding="UTF-8" standalone="no"?>
<!DOCTYPE svg PUBLIC "-//W3C//DTD SVG 1.1//EN"
 "http://www.w3.org/Graphics/SVG/1.1/DTD/svg11.dtd">
<!-- Generated by graphviz version 2.46.0 (20210119.1425)
 -->
<!-- Title: dependencies Pages: 1 -->
<svg width="1481pt" height="284pt"
 viewBox="0.00 0.00 1481.00 284.00" xmlns="http://www.w3.org/2000/svg" xmlns:xlink="http://www.w3.org/1999/xlink">
<g id="graph0" class="graph" transform="scale(1 1) rotate(0) translate(4 280)">
<title>dependencies</title>
<polygon fill="white" stroke="transparent" points="-4,4 -4,-280 1477,-280 1477,4 -4,4"/>
<text text-anchor="start" x="715.51" y="-42.4" font-family="sans-serif" font-weight="bold" font-size="14.00">Legend</text>
<polygon fill="#ffffb3" stroke="transparent" points="502.5,-10 502.5,-30 522.5,-30 522.5,-10 502.5,-10"/>
<text text-anchor="start" x="526.13" y="-15.4" font-family="sans-serif" font-size="14.00"> &#160;Declarations</text>
<polygon fill="#8dd3c7" stroke="transparent" points="615.5,-10 615.5,-30 635.5,-30 635.5,-10 615.5,-10"/>
<text text-anchor="start" x="639.23" y="-15.4" font-family="sans-serif" font-size="14.00"> &#160;Module</text>
<polygon fill="#80b1d3" stroke="transparent" points="701.5,-10 701.5,-30 721.5,-30 721.5,-10 701.5,-10"/>
<text text-anchor="start" x="725.28" y="-15.4" font-family="sans-serif" font-size="14.00"> &#160;Bootstrap</text>
<polygon fill="#fdb462" stroke="transparent" points="798.5,-10 798.5,-30 818.5,-30 818.5,-10 798.5,-10"/>
<text text-anchor="start" x="822.17" y="-15.4" font-family="sans-serif" font-size="14.00"> &#160;Providers</text>
<polygon fill="#fb8072" stroke="transparent" points="894.5,-10 894.5,-30 914.5,-30 914.5,-10 894.5,-10"/>
<text text-anchor="start" x="918.23" y="-15.4" font-family="sans-serif" font-size="14.00"> &#160;Exports</text>
<g id="clust1" class="cluster">
<title>cluster_AppModule</title>
<polygon fill="none" stroke="black" stroke-dasharray="1,5" points="8,-70 8,-268 1465,-268 1465,-70 8,-70"/>
</g>
<g id="clust11" class="cluster">
<title>cluster_AppModule_imports</title>
<polygon fill="none" stroke="black" points="1188,-78 1188,-130 1457,-130 1457,-78 1188,-78"/>
</g>
<g id="clust2" class="cluster">
<title>cluster_AppModule_declarations</title>
<polygon fill="none" stroke="black" points="16,-78 16,-130 1180,-130 1180,-78 16,-78"/>
</g>
<g id="clust13" class="cluster">
<title>cluster_AppModule_bootstrap</title>
<polygon fill="none" stroke="black" points="672,-208 672,-260 796,-260 796,-208 672,-208"/>
</g>
<!-- AppComponent -->
<g id="node1" class="node">
<title>AppComponent</title>
<polygon fill="#ffffb3" stroke="black" points="1171.94,-122 1066.06,-122 1066.06,-86 1171.94,-86 1171.94,-122"/>
<text text-anchor="middle" x="1119" y="-99.8" font-family="Times,serif" font-size="14.00">AppComponent</text>
</g>
<!-- AppModule -->
<g id="node9" class="node">
<title>AppModule</title>
<polygon fill="#8dd3c7" stroke="black" points="775.66,-187 772.66,-191 751.66,-191 748.66,-187 692.34,-187 692.34,-151 775.66,-151 775.66,-187"/>
<text text-anchor="middle" x="734" y="-164.8" font-family="Times,serif" font-size="14.00">AppModule</text>
</g>
<!-- AppComponent&#45;&gt;AppModule -->
<g id="edge1" class="edge">
<title>AppComponent&#45;&gt;AppModule</title>
<path fill="none" stroke="black" d="M1119,-122.27C1119,-140.56 1119,-166 1119,-166 1119,-166 785.93,-166 785.93,-166"/>
<polygon fill="black" stroke="black" points="785.93,-162.5 775.93,-166 785.93,-169.5 785.93,-162.5"/>
</g>
<!-- CardOptionComponent -->
<g id="node2" class="node">
<title>CardOptionComponent</title>
<polygon fill="#ffffb3" stroke="black" points="1048.93,-122 901.07,-122 901.07,-86 1048.93,-86 1048.93,-122"/>
<text text-anchor="middle" x="975" y="-99.8" font-family="Times,serif" font-size="14.00">CardOptionComponent</text>
</g>
<!-- CardOptionComponent&#45;&gt;AppModule -->
<g id="edge2" class="edge">
<title>CardOptionComponent&#45;&gt;AppModule</title>
<path fill="none" stroke="black" d="M975,-122.01C975,-138.05 975,-159 975,-159 975,-159 785.7,-159 785.7,-159"/>
<polygon fill="black" stroke="black" points="785.7,-155.5 775.7,-159 785.7,-162.5 785.7,-155.5"/>
</g>
<!-- CmsLayoutComponent -->
<g id="node3" class="node">
<title>CmsLayoutComponent</title>
<polygon fill="#ffffb3" stroke="black" points="883.16,-122 736.84,-122 736.84,-86 883.16,-86 883.16,-122"/>
<text text-anchor="middle" x="810" y="-99.8" font-family="Times,serif" font-size="14.00">CmsLayoutComponent</text>
</g>
<!-- CmsLayoutComponent&#45;&gt;AppModule -->
<g id="edge3" class="edge">
<title>CmsLayoutComponent&#45;&gt;AppModule</title>
<path fill="none" stroke="black" d="M756.25,-122.11C756.25,-122.11 756.25,-140.99 756.25,-140.99"/>
<polygon fill="black" stroke="black" points="752.75,-140.99 756.25,-150.99 759.75,-140.99 752.75,-140.99"/>
</g>
<!-- HeaderComponent -->
<g id="node4" class="node">
<title>HeaderComponent</title>
<polygon fill="#ffffb3" stroke="black" points="718.74,-122 597.26,-122 597.26,-86 718.74,-86 718.74,-122"/>
<text text-anchor="middle" x="658" y="-99.8" font-family="Times,serif" font-size="14.00">HeaderComponent</text>
</g>
<!-- HeaderComponent&#45;&gt;AppModule -->
<g id="edge4" class="edge">
<title>HeaderComponent&#45;&gt;AppModule</title>
<path fill="none" stroke="black" d="M705.52,-122.11C705.52,-122.11 705.52,-140.99 705.52,-140.99"/>
<polygon fill="black" stroke="black" points="702.02,-140.99 705.52,-150.99 709.02,-140.99 702.02,-140.99"/>
</g>
<!-- HomeComponent -->
<g id="node5" class="node">
<title>HomeComponent</title>
<polygon fill="#ffffb3" stroke="black" points="578.55,-122 463.45,-122 463.45,-86 578.55,-86 578.55,-122"/>
<text text-anchor="middle" x="521" y="-99.8" font-family="Times,serif" font-size="14.00">HomeComponent</text>
</g>
<!-- HomeComponent&#45;&gt;AppModule -->
<g id="edge5" class="edge">
<title>HomeComponent&#45;&gt;AppModule</title>
<path fill="none" stroke="black" d="M521,-122.01C521,-138.05 521,-159 521,-159 521,-159 682.17,-159 682.17,-159"/>
<polygon fill="black" stroke="black" points="682.17,-162.5 692.17,-159 682.17,-155.5 682.17,-162.5"/>
</g>
<!-- LangPipe -->
<g id="node6" class="node">
<title>LangPipe</title>
<polygon fill="#ffffb3" stroke="black" points="444.66,-122 375.34,-122 375.34,-86 444.66,-86 444.66,-122"/>
<text text-anchor="middle" x="410" y="-99.8" font-family="Times,serif" font-size="14.00">LangPipe</text>
</g>
<!-- LangPipe&#45;&gt;AppModule -->
<g id="edge6" class="edge">
<title>LangPipe&#45;&gt;AppModule</title>
<path fill="none" stroke="black" d="M410,-122.27C410,-140.56 410,-166 410,-166 410,-166 682.31,-166 682.31,-166"/>
<polygon fill="black" stroke="black" points="682.31,-169.5 692.31,-166 682.31,-162.5 682.31,-169.5"/>
</g>
<!-- MaterialElevationDirective -->
<g id="node7" class="node">
<title>MaterialElevationDirective</title>
<polygon fill="#ffffb3" stroke="black" points="357.66,-122 188.34,-122 188.34,-86 357.66,-86 357.66,-122"/>
<text text-anchor="middle" x="273" y="-99.8" font-family="Times,serif" font-size="14.00">MaterialElevationDirective</text>
</g>
<!-- MaterialElevationDirective&#45;&gt;AppModule -->
<g id="edge7" class="edge">
<title>MaterialElevationDirective&#45;&gt;AppModule</title>
<path fill="none" stroke="black" d="M273,-122.13C273,-142.57 273,-173 273,-173 273,-173 682.28,-173 682.28,-173"/>
<polygon fill="black" stroke="black" points="682.28,-176.5 692.28,-173 682.28,-169.5 682.28,-176.5"/>
</g>
<!-- RegisterPinComponent -->
<g id="node8" class="node">
<title>RegisterPinComponent</title>
<polygon fill="#ffffb3" stroke="black" points="170.16,-122 23.84,-122 23.84,-86 170.16,-86 170.16,-122"/>
<text text-anchor="middle" x="97" y="-99.8" font-family="Times,serif" font-size="14.00">RegisterPinComponent</text>
</g>
<!-- RegisterPinComponent&#45;&gt;AppModule -->
<g id="edge8" class="edge">
<title>RegisterPinComponent&#45;&gt;AppModule</title>
<path fill="none" stroke="black" d="M97,-122.01C97,-144.49 97,-180 97,-180 97,-180 682.2,-180 682.2,-180"/>
<polygon fill="black" stroke="black" points="682.2,-183.5 692.2,-180 682.2,-176.5 682.2,-183.5"/>
</g>
<!-- AppComponent  -->
<g id="node12" class="node">
<title>AppComponent </title>
<polygon fill="#80b1d3" stroke="black" points="788.44,-252 679.56,-252 679.56,-216 788.44,-216 788.44,-252"/>
<text text-anchor="middle" x="734" y="-229.8" font-family="Times,serif" font-size="14.00">AppComponent </text>
</g>
<!-- AppModule&#45;&gt;AppComponent  -->
<g id="edge11" class="edge">
<title>AppModule&#45;&gt;AppComponent </title>
<path fill="none" stroke="black" stroke-dasharray="1,5" d="M734,-187.11C734,-187.11 734,-205.99 734,-205.99"/>
<polygon fill="black" stroke="black" points="730.5,-205.99 734,-215.99 737.5,-205.99 730.5,-205.99"/>
</g>
<!-- AppRoutingModule -->
<g id="node10" class="node">
<title>AppRoutingModule</title>
<polygon fill="#8dd3c7" stroke="black" points="1449.27,-122 1446.27,-126 1425.27,-126 1422.27,-122 1320.73,-122 1320.73,-86 1449.27,-86 1449.27,-122"/>
<text text-anchor="middle" x="1385" y="-99.8" font-family="Times,serif" font-size="14.00">AppRoutingModule</text>
</g>
<!-- AppRoutingModule&#45;&gt;AppModule -->
<g id="edge9" class="edge">
<title>AppRoutingModule&#45;&gt;AppModule</title>
<path fill="none" stroke="black" d="M1385,-122.01C1385,-144.49 1385,-180 1385,-180 1385,-180 785.71,-180 785.71,-180"/>
<polygon fill="black" stroke="black" points="785.71,-176.5 775.71,-180 785.71,-183.5 785.71,-176.5"/>
</g>
<!-- MaterialModule -->
<g id="node11" class="node">
<title>MaterialModule</title>
<polygon fill="#8dd3c7" stroke="black" points="1302.47,-122 1299.47,-126 1278.47,-126 1275.47,-122 1195.53,-122 1195.53,-86 1302.47,-86 1302.47,-122"/>
<text text-anchor="middle" x="1249" y="-99.8" font-family="Times,serif" font-size="14.00">MaterialModule</text>
</g>
<!-- MaterialModule&#45;&gt;AppModule -->
<g id="edge10" class="edge">
<title>MaterialModule&#45;&gt;AppModule</title>
<path fill="none" stroke="black" d="M1249,-122.13C1249,-142.57 1249,-173 1249,-173 1249,-173 785.71,-173 785.71,-173"/>
<polygon fill="black" stroke="black" points="785.71,-169.5 775.71,-173 785.71,-176.5 785.71,-169.5"/>
</g>
</g>
</svg>
