<?xml version="1.0" encoding="UTF-8" standalone="no"?>
<!DOCTYPE svg PUBLIC "-//W3C//DTD SVG 1.1//EN"
 "http://www.w3.org/Graphics/SVG/1.1/DTD/svg11.dtd">
<!-- Generated by graphviz version 2.46.0 (20210119.1425)
 -->
<!-- Title: dependencies Pages: 1 -->
<svg width="1481pt" height="284pt"
 viewBox="0.00 0.00 1481.00 284.00" xmlns="http://www.w3.org/2000/svg" xmlns:xlink="http://www.w3.org/1999/xlink">
<g id="graph0" class="graph" transform="scale(1 1) rotate(0) translate(4 280)">
<title>dependencies</title>
<polygon fill="white" stroke="transparent" points="-4,4 -4,-280 1477,-280 1477,4 -4,4"/>
<text text-anchor="start" x="715.51" y="-42.4" font-family="sans-serif" font-weight="bold" font-size="14.00">Legend</text>
<polygon fill="#ffffb3" stroke="transparent" points="502.5,-10 502.5,-30 522.5,-30 522.5,-10 502.5,-10"/>
<text text-anchor="start" x="526.13" y="-15.4" font-family="sans-serif" font-size="14.00"> &#160;Declarations</text>
<polygon fill="#8dd3c7" stroke="transparent" points="615.5,-10 615.5,-30 635.5,-30 635.5,-10 615.5,-10"/>
<text text-anchor="start" x="639.23" y="-15.4" font-family="sans-serif" font-size="14.00"> &#160;Module</text>
<polygon fill="#80b1d3" stroke="transparent" points="701.5,-10 701.5,-30 721.5,-30 721.5,-10 701.5,-10"/>
<text text-anchor="start" x="725.28" y="-15.4" font-family="sans-serif" font-size="14.00"> &#160;Bootstrap</text>
<polygon fill="#fdb462" stroke="transparent" points="798.5,-10 798.5,-30 818.5,-30 818.5,-10 798.5,-10"/>
<text text-anchor="start" x="822.17" y="-15.4" font-family="sans-serif" font-size="14.00"> &#160;Providers</text>
<polygon fill="#fb8072" stroke="transparent" points="894.5,-10 894.5,-30 914.5,-30 914.5,-10 894.5,-10"/>
<text text-anchor="start" x="918.23" y="-15.4" font-family="sans-serif" font-size="14.00"> &#160;Exports</text>
<g id="clust1" class="cluster">
<title>cluster_AppModule</title>
<polygon fill="none" stroke="black" stroke-dasharray="1,5" points="8,-70 8,-268 1465,-268 1465,-70 8,-70"/>
</g>
<g id="clust2" class="cluster">
<title>cluster_AppModule_declarations</title>
<polygon fill="none" stroke="black" points="293,-78 293,-130 1457,-130 1457,-78 293,-78"/>
</g>
<g id="clust11" class="cluster">
<title>cluster_AppModule_imports</title>
<polygon fill="none" stroke="black" points="16,-78 16,-130 285,-130 285,-78 16,-78"/>
</g>
<g id="clust13" class="cluster">
<title>cluster_AppModule_bootstrap</title>
<polygon fill="none" stroke="black" points="680,-208 680,-260 804,-260 804,-208 680,-208"/>
</g>
<!-- AppComponent -->
<g id="node1" class="node">
<title>AppComponent</title>
<polygon fill="#ffffb3" stroke="black" points="1448.94,-122 1343.06,-122 1343.06,-86 1448.94,-86 1448.94,-122"/>
<text text-anchor="middle" x="1396" y="-99.8" font-family="Times,serif" font-size="14.00">AppComponent</text>
</g>
<!-- AppModule -->
<g id="node9" class="node">
<title>AppModule</title>
<polygon fill="#8dd3c7" stroke="black" points="783.66,-187 780.66,-191 759.66,-191 756.66,-187 700.34,-187 700.34,-151 783.66,-151 783.66,-187"/>
<text text-anchor="middle" x="742" y="-164.8" font-family="Times,serif" font-size="14.00">AppModule</text>
</g>
<!-- AppComponent&#45;&gt;AppModule -->
<g id="edge1" class="edge">
<title>AppComponent&#45;&gt;AppModule</title>
<path fill="none" stroke="black" d="M1396,-122.01C1396,-144.49 1396,-180 1396,-180 1396,-180 793.91,-180 793.91,-180"/>
<polygon fill="black" stroke="black" points="793.91,-176.5 783.91,-180 793.91,-183.5 793.91,-176.5"/>
</g>
<!-- CardOptionComponent -->
<g id="node2" class="node">
<title>CardOptionComponent</title>
<polygon fill="#ffffb3" stroke="black" points="1325.93,-122 1178.07,-122 1178.07,-86 1325.93,-86 1325.93,-122"/>
<text text-anchor="middle" x="1252" y="-99.8" font-family="Times,serif" font-size="14.00">CardOptionComponent</text>
</g>
<!-- CardOptionComponent&#45;&gt;AppModule -->
<g id="edge2" class="edge">
<title>CardOptionComponent&#45;&gt;AppModule</title>
<path fill="none" stroke="black" d="M1252,-122.13C1252,-142.57 1252,-173 1252,-173 1252,-173 793.74,-173 793.74,-173"/>
<polygon fill="black" stroke="black" points="793.74,-169.5 783.74,-173 793.74,-176.5 793.74,-169.5"/>
</g>
<!-- CmsLayoutComponent -->
<g id="node3" class="node">
<title>CmsLayoutComponent</title>
<polygon fill="#ffffb3" stroke="black" points="1160.16,-122 1013.84,-122 1013.84,-86 1160.16,-86 1160.16,-122"/>
<text text-anchor="middle" x="1087" y="-99.8" font-family="Times,serif" font-size="14.00">CmsLayoutComponent</text>
</g>
<!-- CmsLayoutComponent&#45;&gt;AppModule -->
<g id="edge3" class="edge">
<title>CmsLayoutComponent&#45;&gt;AppModule</title>
<path fill="none" stroke="black" d="M1087,-122.27C1087,-140.56 1087,-166 1087,-166 1087,-166 793.96,-166 793.96,-166"/>
<polygon fill="black" stroke="black" points="793.96,-162.5 783.96,-166 793.96,-169.5 793.96,-162.5"/>
</g>
<!-- HeaderComponent -->
<g id="node4" class="node">
<title>HeaderComponent</title>
<polygon fill="#ffffb3" stroke="black" points="995.74,-122 874.26,-122 874.26,-86 995.74,-86 995.74,-122"/>
<text text-anchor="middle" x="935" y="-99.8" font-family="Times,serif" font-size="14.00">HeaderComponent</text>
</g>
<!-- HeaderComponent&#45;&gt;AppModule -->
<g id="edge4" class="edge">
<title>HeaderComponent&#45;&gt;AppModule</title>
<path fill="none" stroke="black" d="M935,-122.01C935,-138.05 935,-159 935,-159 935,-159 793.88,-159 793.88,-159"/>
<polygon fill="black" stroke="black" points="793.88,-155.5 783.88,-159 793.88,-162.5 793.88,-155.5"/>
</g>
<!-- HomeComponent -->
<g id="node5" class="node">
<title>HomeComponent</title>
<polygon fill="#ffffb3" stroke="black" points="855.55,-122 740.45,-122 740.45,-86 855.55,-86 855.55,-122"/>
<text text-anchor="middle" x="798" y="-99.8" font-family="Times,serif" font-size="14.00">HomeComponent</text>
</g>
<!-- HomeComponent&#45;&gt;AppModule -->
<g id="edge5" class="edge">
<title>HomeComponent&#45;&gt;AppModule</title>
<path fill="none" stroke="black" d="M762.03,-122.11C762.03,-122.11 762.03,-140.99 762.03,-140.99"/>
<polygon fill="black" stroke="black" points="758.53,-140.99 762.03,-150.99 765.53,-140.99 758.53,-140.99"/>
</g>
<!-- LangPipe -->
<g id="node6" class="node">
<title>LangPipe</title>
<polygon fill="#ffffb3" stroke="black" points="721.66,-122 652.34,-122 652.34,-86 721.66,-86 721.66,-122"/>
<text text-anchor="middle" x="687" y="-99.8" font-family="Times,serif" font-size="14.00">LangPipe</text>
</g>
<!-- LangPipe&#45;&gt;AppModule -->
<g id="edge6" class="edge">
<title>LangPipe&#45;&gt;AppModule</title>
<path fill="none" stroke="black" d="M711,-122.11C711,-122.11 711,-140.99 711,-140.99"/>
<polygon fill="black" stroke="black" points="707.5,-140.99 711,-150.99 714.5,-140.99 707.5,-140.99"/>
</g>
<!-- MaterialElevationDirective -->
<g id="node7" class="node">
<title>MaterialElevationDirective</title>
<polygon fill="#ffffb3" stroke="black" points="634.66,-122 465.34,-122 465.34,-86 634.66,-86 634.66,-122"/>
<text text-anchor="middle" x="550" y="-99.8" font-family="Times,serif" font-size="14.00">MaterialElevationDirective</text>
</g>
<!-- MaterialElevationDirective&#45;&gt;AppModule -->
<g id="edge7" class="edge">
<title>MaterialElevationDirective&#45;&gt;AppModule</title>
<path fill="none" stroke="black" d="M550,-122.01C550,-138.05 550,-159 550,-159 550,-159 690.34,-159 690.34,-159"/>
<polygon fill="black" stroke="black" points="690.34,-162.5 700.34,-159 690.34,-155.5 690.34,-162.5"/>
</g>
<!-- RegisterPinComponent -->
<g id="node8" class="node">
<title>RegisterPinComponent</title>
<polygon fill="#ffffb3" stroke="black" points="447.16,-122 300.84,-122 300.84,-86 447.16,-86 447.16,-122"/>
<text text-anchor="middle" x="374" y="-99.8" font-family="Times,serif" font-size="14.00">RegisterPinComponent</text>
</g>
<!-- RegisterPinComponent&#45;&gt;AppModule -->
<g id="edge8" class="edge">
<title>RegisterPinComponent&#45;&gt;AppModule</title>
<path fill="none" stroke="black" d="M374,-122.27C374,-140.56 374,-166 374,-166 374,-166 690.14,-166 690.14,-166"/>
<polygon fill="black" stroke="black" points="690.14,-169.5 700.14,-166 690.14,-162.5 690.14,-169.5"/>
</g>
<!-- AppComponent  -->
<g id="node12" class="node">
<title>AppComponent </title>
<polygon fill="#80b1d3" stroke="black" points="796.44,-252 687.56,-252 687.56,-216 796.44,-216 796.44,-252"/>
<text text-anchor="middle" x="742" y="-229.8" font-family="Times,serif" font-size="14.00">AppComponent </text>
</g>
<!-- AppModule&#45;&gt;AppComponent  -->
<g id="edge11" class="edge">
<title>AppModule&#45;&gt;AppComponent </title>
<path fill="none" stroke="black" stroke-dasharray="1,5" d="M742,-187.11C742,-187.11 742,-205.99 742,-205.99"/>
<polygon fill="black" stroke="black" points="738.5,-205.99 742,-215.99 745.5,-205.99 738.5,-205.99"/>
</g>
<!-- AppRoutingModule -->
<g id="node10" class="node">
<title>AppRoutingModule</title>
<polygon fill="#8dd3c7" stroke="black" points="277.27,-122 274.27,-126 253.27,-126 250.27,-122 148.73,-122 148.73,-86 277.27,-86 277.27,-122"/>
<text text-anchor="middle" x="213" y="-99.8" font-family="Times,serif" font-size="14.00">AppRoutingModule</text>
</g>
<!-- AppRoutingModule&#45;&gt;AppModule -->
<g id="edge9" class="edge">
<title>AppRoutingModule&#45;&gt;AppModule</title>
<path fill="none" stroke="black" d="M213,-122.13C213,-142.57 213,-173 213,-173 213,-173 690.05,-173 690.05,-173"/>
<polygon fill="black" stroke="black" points="690.05,-176.5 700.05,-173 690.05,-169.5 690.05,-176.5"/>
</g>
<!-- MaterialModule -->
<g id="node11" class="node">
<title>MaterialModule</title>
<polygon fill="#8dd3c7" stroke="black" points="130.47,-122 127.47,-126 106.47,-126 103.47,-122 23.53,-122 23.53,-86 130.47,-86 130.47,-122"/>
<text text-anchor="middle" x="77" y="-99.8" font-family="Times,serif" font-size="14.00">MaterialModule</text>
</g>
<!-- MaterialModule&#45;&gt;AppModule -->
<g id="edge10" class="edge">
<title>MaterialModule&#45;&gt;AppModule</title>
<path fill="none" stroke="black" d="M77,-122.01C77,-144.49 77,-180 77,-180 77,-180 690.15,-180 690.15,-180"/>
<polygon fill="black" stroke="black" points="690.15,-183.5 700.15,-180 690.15,-176.5 690.15,-183.5"/>
</g>
</g>
</svg>
